<svg width="150" height="71" viewBox="0 0 150 71" fill="none" xmlns="http://www.w3.org/2000/svg">
<path d="M0 58.8402V12.1598C0 4.89655 4.42651 0 11.0012 0C17.5759 0 21.8722 4.89655 21.8722 12.1598V58.8402C21.8722 66.1034 17.5759 71 11.0012 71C4.42651 71 0 66.1034 0 58.8402ZM6.50958 7.01839V63.9C6.50958 67.1644 8.33226 69.3678 11.0663 69.3678C13.7352 69.3678 15.3626 67.1644 15.3626 63.9V7.01839C15.3626 3.83563 13.6701 1.63218 11.0012 1.63218C8.33226 1.63218 6.50958 3.83563 6.50958 7.01839Z" fill="#101920"/>
<path d="M44.2483 58.8402V14.2816C44.2483 9.38505 43.0766 5.38621 40.5379 1.7954L40.1473 1.22414V0.816091H47.5682V1.63218C46.3314 5.14138 45.6805 9.05862 45.6805 13.4655V58.8402C45.6805 66.1034 41.7747 71 35.7859 71C29.7971 71 25.7611 66.1034 25.7611 58.8402V4.65172C25.7611 3.01954 25.1102 2.12184 24.0036 1.30574L23.8083 1.22414V0.816091H34.0934V1.22414H34.0283C32.7915 1.7954 32.2707 3.01954 32.2707 4.65172V59.2483C32.2707 63.5736 34.6142 66.5115 38.1944 66.5115C41.8398 66.5115 44.2483 63.4103 44.2483 58.8402Z" fill="#101920"/>
<path d="M56.0307 10.2828V11.9149C56.0307 17.3011 57.9836 24.1563 61.3034 30.8483L63.7771 35.8264C67.4224 42.9264 69.4404 50.2713 69.4404 56.1471V58.0241C69.4404 65.777 65.795 71 60.1968 71C57.593 71 55.575 69.9391 54.2731 68.7966C53.4919 68.1437 52.9061 67.8172 52.3853 67.8172C51.6042 67.8172 51.1485 68.6333 51.1485 69.8575V70.1839H50.823L49.5211 39.9069H49.8466L55.4448 63.8184C56.226 67.4908 57.7883 69.3678 59.5458 69.3678C61.6289 69.3678 62.9308 66.3483 62.9308 60.6356V59.0034C62.9308 53.6988 60.978 46.7621 57.6581 40.0701L55.1844 35.1736C51.5391 27.992 49.5211 20.6471 49.5211 14.7713V12.9759C49.5211 5.22298 53.2316 0 58.7647 0C61.4336 0 63.3865 1.06092 64.6884 2.20344C65.4696 2.85632 66.0554 3.18276 66.5762 3.18276C67.3573 3.18276 67.813 2.36667 67.813 1.14253V0.816091H68.1385L69.4404 31.0931H69.1149L63.5167 7.18161C62.8006 3.50919 61.2383 1.63218 59.4808 1.63218C57.3977 1.63218 56.0307 4.65172 56.0307 10.2828Z" fill="#101920"/>
<path d="M88.5079 66.2667L88.3777 65.2874C87.7267 60.6356 84.6672 54.6782 80.8266 50.4345L76.9859 45.8644L75.0981 59.0851C74.5123 63.3287 75.4887 66.6747 77.9624 69.3678L78.5482 69.7759V70.1839H70.1509V69.7759L70.4112 69.4494C72.0386 66.7563 73.0802 63.5736 73.6009 59.9012L81.6728 3.75402C81.803 2.6931 81.1521 1.71379 80.0454 1.30574L79.785 1.22414V0.816091H85.5786L95.0175 66.1851C95.2127 67.8172 95.9288 68.9598 97.1656 69.531L97.4911 69.7759V70.1839H86.6201V69.7759L87.1409 69.531C88.2475 68.9598 88.7032 67.8988 88.5079 66.2667ZM81.2822 16.3218L77.2463 44.3138L86.9456 55.6575L81.2822 16.3218Z" fill="#101920"/>
<path d="M113.354 70.1839H98.1217V69.7759L98.317 69.6126C99.4236 68.7966 100.075 67.8988 100.075 66.2667V4.65172C100.075 3.01954 99.4236 2.12184 98.317 1.30574L98.1217 1.22414V0.816091H113.354C118.562 0.816091 121.947 5.71264 121.947 12.9759V58.0241C121.947 65.2874 118.562 70.1839 113.354 70.1839ZM106.584 2.44827V68.5517H111.271C113.81 68.5517 115.437 66.3483 115.437 63.0839V7.83448C115.437 4.65172 113.81 2.44827 111.271 2.44827H106.584Z" fill="#101920"/>
<path d="M141.017 66.2667L140.887 65.2874C140.236 60.6356 137.176 54.6782 133.335 50.4345L129.495 45.8644L127.607 59.0851C127.021 63.3287 127.998 66.6747 130.471 69.3678L131.057 69.7759V70.1839H122.66V69.7759L122.92 69.4494C124.548 66.7563 125.589 63.5736 126.11 59.9012L134.182 3.75402C134.312 2.6931 133.661 1.71379 132.554 1.30574L132.294 1.22414V0.816091H138.087L147.526 66.1851C147.722 67.8172 148.438 68.9598 149.675 69.531L150 69.7759V70.1839H139.129V69.7759L139.65 69.531C140.756 68.9598 141.212 67.8988 141.017 66.2667ZM133.791 16.3218L129.755 44.3138L139.454 55.6575L133.791 16.3218Z" fill="#101920"/>
</svg>
